<svg width="20" height="20" viewBox="0 0 20 20" fill="none" xmlns="http://www.w3.org/2000/svg">
<path d="M0.789955 12.78L0.699955 12.69C0.309955 12.3 0.309955 11.67 0.699955 11.28L6.78996 5.18003C7.17996 4.79003 7.80996 4.79003 8.19995 5.18003L11.49 8.47003L17.88 1.29003C18.26 0.860028 18.93 0.850029 19.33 1.25003C19.7 1.63003 19.72 2.23003 19.37 2.62003L12.2 10.69C11.82 11.12 11.16 11.14 10.75 10.73L7.49996 7.48003L2.19996 12.78C1.81996 13.17 1.17996 13.17 0.789955 12.78ZM2.19996 18.78L7.49996 13.48L10.75 16.73C11.16 17.14 11.82 17.12 12.2 16.69L19.37 8.62003C19.72 8.23003 19.7 7.63003 19.33 7.25003C18.93 6.85003 18.26 6.86003 17.88 7.29003L11.49 14.47L8.19995 11.18C7.80996 10.79 7.17996 10.79 6.78996 11.18L0.699955 17.28C0.309955 17.67 0.309955 18.3 0.699955 18.69L0.789955 18.78C1.17996 19.17 1.81996 19.17 2.19996 18.78Z" fill="white"/>
</svg>
