<svg width="21" height="20" viewBox="0 0 21 20" fill="none" xmlns="http://www.w3.org/2000/svg">
<path d="M14.3766 10.71C15.357 9.93866 16.0726 8.88092 16.4239 7.68394C16.7751 6.48697 16.7445 5.21027 16.3364 4.03147C15.9283 2.85267 15.1629 1.83039 14.1467 1.10686C13.1305 0.383322 11.9141 -0.00549316 10.6666 -0.00549316C9.41917 -0.00549316 8.20274 0.383322 7.18655 1.10686C6.17037 1.83039 5.40497 2.85267 4.99684 4.03147C4.5887 5.21027 4.55814 6.48697 4.90938 7.68394C5.26063 8.88092 5.97623 9.93866 6.95662 10.71C5.2767 11.383 3.81091 12.4994 2.71552 13.9399C1.62012 15.3805 0.936186 17.0913 0.736623 18.89C0.722177 19.0213 0.733739 19.1542 0.770648 19.2811C0.807557 19.4079 0.86909 19.5263 0.951734 19.6293C1.11864 19.8375 1.36141 19.9708 1.62662 20C1.89184 20.0292 2.15778 19.9518 2.36595 19.7849C2.57411 19.618 2.70745 19.3752 2.73662 19.11C2.95621 17.1552 3.88831 15.3498 5.35484 14.0388C6.82137 12.7278 8.71952 12.003 10.6866 12.003C12.6537 12.003 14.5519 12.7278 16.0184 14.0388C17.4849 15.3498 18.417 17.1552 18.6366 19.11C18.6638 19.3557 18.7811 19.5827 18.9657 19.747C19.1504 19.9114 19.3894 20.0015 19.6366 20H19.7466C20.0088 19.9698 20.2483 19.8373 20.4132 19.6313C20.578 19.4252 20.6547 19.1624 20.6266 18.9C20.4261 17.0962 19.7385 15.381 18.6375 13.9382C17.5364 12.4954 16.0635 11.3795 14.3766 10.71ZM10.6666 10C9.8755 10 9.10214 9.76541 8.44434 9.32588C7.78655 8.88636 7.27385 8.26164 6.9711 7.53074C6.66835 6.79983 6.58914 5.99557 6.74348 5.21964C6.89782 4.44372 7.27879 3.73099 7.8382 3.17158C8.39761 2.61217 9.11034 2.2312 9.88626 2.07686C10.6622 1.92252 11.4665 2.00173 12.1974 2.30448C12.9283 2.60724 13.553 3.11993 13.9925 3.77772C14.432 4.43552 14.6666 5.20888 14.6666 6C14.6666 7.06087 14.2452 8.07828 13.4951 8.82843C12.7449 9.57858 11.7275 10 10.6666 10Z" fill="white"/>
</svg>
